<svg preserveAspectRatio="none" width="100%" height="100%" overflow="visible" style="display: block;" viewBox="0 0 26 25" fill="none" xmlns="http://www.w3.org/2000/svg">
<path id="Primary" d="M13.0029 6.09032C12.1269 6.08812 11.2591 6.25188 10.4489 6.57224C9.63877 6.89261 8.90215 7.36331 8.28113 7.95747C7.02693 9.15743 6.31973 10.7874 6.31511 12.4888C6.3105 14.1903 7.00884 15.8238 8.25652 17.03C9.5042 18.2363 11.199 18.9164 12.9681 18.9208C14.7372 18.9253 16.4357 18.2536 17.6899 17.0537C18.9441 15.8537 19.6513 14.2237 19.6559 12.5223C19.6605 10.8209 18.9622 9.18737 17.7145 7.98114C16.4668 6.7749 14.772 6.09475 13.0029 6.09032ZM12.9681 8.34403C13.5363 8.34183 14.0995 8.44729 14.6253 8.6544C15.1512 8.86151 15.6295 9.1662 16.0329 9.55108C16.4363 9.93597 16.7569 10.3935 16.9765 10.8976C17.1961 11.4016 17.3103 11.9423 17.3125 12.4888C17.3148 13.0353 17.2052 13.5769 16.9898 14.0827C16.7745 14.5884 16.4577 15.0484 16.0575 15.4364C15.6573 15.8244 15.1816 16.1328 14.6575 16.3439C14.1334 16.5551 13.5711 16.6649 13.0029 16.6671C12.4347 16.6693 11.8715 16.5639 11.3457 16.3568C10.8198 16.1496 10.3415 15.845 9.93812 15.4601C9.5347 15.0752 9.21405 14.6177 8.99449 14.1136C8.77492 13.6095 8.66073 13.0688 8.65845 12.5223C8.65616 11.9758 8.76582 11.4342 8.98117 10.9285C9.19651 10.4227 9.51332 9.96274 9.91351 9.57475C10.3137 9.18676 10.7894 8.87838 11.3135 8.66721C11.8376 8.45604 12.3999 8.34622 12.9681 8.34403ZM18.3856 5.82813C18.3856 5.43162 18.5494 5.05135 18.8409 4.77098C19.1324 4.4906 19.5278 4.33309 19.9401 4.33309C20.3524 4.33309 20.7478 4.4906 21.0393 4.77098C21.3308 5.05135 21.4946 5.43162 21.4946 5.82813C21.4946 6.22463 21.3308 6.6049 21.0393 6.88528C20.7478 7.16565 20.3524 7.32316 19.9401 7.32316C19.5278 7.32316 19.1324 7.16565 18.8409 6.88528C18.5494 6.6049 18.3856 6.22463 18.3856 5.82813ZM25.9086 7.34548C25.81 5.3428 25.3344 3.56884 23.8089 2.10727C22.2892 0.64571 20.4447 0.188274 18.3624 0.0878612C16.2163 -0.0292871 9.78371 -0.0292871 7.63759 0.0878612C5.56107 0.182696 3.71656 0.640132 2.19108 2.1017C0.665589 3.56326 0.195761 5.33722 0.0913553 7.3399C-0.0304518 9.40394 -0.0304518 15.5905 0.0913553 17.6545C0.189961 19.6572 0.665589 21.4312 2.19108 22.8927C3.71656 24.3543 5.55527 24.8117 7.63759 24.9121C9.78371 25.0293 16.2163 25.0293 18.3624 24.9121C20.4447 24.8173 22.2892 24.3599 23.8089 22.8927C25.3286 21.4312 25.8042 19.6572 25.9086 17.6545C26.0305 15.5905 26.0305 9.40952 25.9086 7.34548ZM23.1361 19.8692C22.6837 20.9626 21.8078 21.8049 20.6651 22.2456C18.954 22.8983 14.8938 22.7477 13.0029 22.7477C11.112 22.7477 7.04596 22.8927 5.34066 22.2456C4.20379 21.8105 3.32794 20.9681 2.86972 19.8692C2.19108 18.2235 2.34769 14.3186 2.34769 12.5C2.34769 10.6814 2.19688 6.77089 2.86972 5.13082C3.32214 4.03743 4.19799 3.19508 5.34066 2.75438C7.05176 2.1017 11.112 2.25231 13.0029 2.25231C14.8938 2.25231 18.9598 2.10727 20.6651 2.75438C21.802 3.1895 22.6779 4.03185 23.1361 5.13082C23.8147 6.77647 23.6581 10.6814 23.6581 12.5C23.6581 14.3186 23.8147 18.2291 23.1361 19.8692Z" fill="var(--fill-0, #1F1F1F)"/>
</svg>
