<svg preserveAspectRatio="none" width="100%" height="100%" overflow="visible" style="display: block;" viewBox="0 0 25 25" fill="none" xmlns="http://www.w3.org/2000/svg">
<path id="Primary" d="M5.25112 15.798C5.25112 17.2433 4.06808 18.4263 2.62277 18.4263C1.17746 18.4263 0 17.2433 0 15.798C0 14.3527 1.18304 13.1696 2.62835 13.1696H5.2567V15.798H5.25112ZM6.57366 15.798C6.57366 14.3527 7.7567 13.1696 9.20201 13.1696C10.6473 13.1696 11.8304 14.3527 11.8304 15.798V22.3717C11.8304 23.817 10.6473 25 9.20201 25C7.7567 25 6.57366 23.817 6.57366 22.3717V15.798ZM9.20201 5.25112C7.7567 5.25112 6.57366 4.06808 6.57366 2.62277C6.57366 1.17746 7.7567 0 9.20201 0C10.6473 0 11.8304 1.18304 11.8304 2.62835V5.2567H9.20201V5.25112ZM9.20201 6.57366C10.6473 6.57366 11.8304 7.7567 11.8304 9.20201C11.8304 10.6473 10.6473 11.8304 9.20201 11.8304H2.62835C1.18304 11.8304 0 10.6473 0 9.20201C0 7.7567 1.18304 6.57366 2.62835 6.57366H9.20201ZM19.7489 9.20201C19.7489 7.7567 20.9319 6.57366 22.3772 6.57366C23.8225 6.57366 25 7.7567 25 9.20201C25 10.6473 23.817 11.8304 22.3717 11.8304H19.7433V9.20201H19.7489ZM18.4263 9.20201C18.4263 10.6473 17.2433 11.8304 15.798 11.8304C14.3527 11.8304 13.1696 10.6473 13.1696 9.20201V2.62835C13.1696 1.18304 14.3527 0 15.798 0C17.2433 0 18.4263 1.18304 18.4263 2.62835V9.20201ZM15.798 19.7489C17.2433 19.7489 18.4263 20.9319 18.4263 22.3772C18.4263 23.8225 17.2433 25 15.798 25C14.3527 25 13.1696 23.817 13.1696 22.3717V19.7433H15.798V19.7489ZM15.798 18.4263C14.3527 18.4263 13.1696 17.2433 13.1696 15.798C13.1696 14.3527 14.3527 13.1696 15.798 13.1696H22.3717C23.817 13.1696 25 14.3527 25 15.798C25 17.2433 23.817 18.4263 22.3717 18.4263H15.798Z" fill="var(--fill-0, #1F1F1F)"/>
</svg>
