<svg width="36" height="40" viewBox="0 0 36 40" fill="none" xmlns="http://www.w3.org/2000/svg">
<path d="M10.2874 3.125C10.2874 1.39844 11.7257 0 13.5015 0C15.2773 0 16.7156 1.39844 16.7156 3.125V14.7031C17.3986 14.1094 18.2985 13.75 19.2868 13.75C20.9421 13.75 22.3563 14.7656 22.9027 16.1875C23.6097 15.4609 24.6061 15 25.715 15C27.7479 15 29.4111 16.5234 29.5638 18.4609C30.2468 17.8594 31.1548 17.5 32.1431 17.5C34.2724 17.5 36 19.1797 36 21.25V30C36 35.5234 31.3958 40 25.715 40H18.861C18.4592 40 18.0655 39.9766 17.6798 39.9219C13.2363 39.4844 9.14642 37.2656 6.43053 33.75L0.645199 26.25C-0.423481 24.8672 -0.134214 22.9141 1.28801 21.875C2.71024 20.8359 4.71904 21.1172 5.78772 22.5L10.2874 28.3359V3.125ZM19.2868 23.75C19.2868 23.0625 18.7083 22.5 18.0012 22.5C17.2941 22.5 16.7156 23.0625 16.7156 23.75V31.25C16.7156 31.9375 17.2941 32.5 18.0012 32.5C18.7083 32.5 19.2868 31.9375 19.2868 31.25V23.75ZM23.1437 22.5C22.4366 22.5 21.8581 23.0625 21.8581 23.75V31.25C21.8581 31.9375 22.4366 32.5 23.1437 32.5C23.8508 32.5 24.4293 31.9375 24.4293 31.25V23.75C24.4293 23.0625 23.8508 22.5 23.1437 22.5ZM29.5719 23.75C29.5719 23.0625 28.9933 22.5 28.2862 22.5C27.5791 22.5 27.0006 23.0625 27.0006 23.75V31.25C27.0006 31.9375 27.5791 32.5 28.2862 32.5C28.9933 32.5 29.5719 31.9375 29.5719 31.25V23.75Z" fill="#EEB50C"/>
</svg>
