<svg width="16" height="16" viewBox="0 0 16 16" fill="none" xmlns="http://www.w3.org/2000/svg">
<path d="M9.93535 0C9.3858 0 8.94181 0.443986 8.94181 0.993535C8.94181 1.54308 9.3858 1.98707 9.93535 1.98707H12.503L6.24995 8.24013C5.86186 8.62823 5.86186 9.2585 6.24995 9.6466C6.63805 10.0347 7.26833 10.0347 7.65643 9.6466L13.9095 3.39354V5.96121C13.9095 6.51076 14.3535 6.95474 14.903 6.95474C15.4526 6.95474 15.8966 6.51076 15.8966 5.96121V0.993535C15.8966 0.443986 15.4526 0 14.903 0H9.93535ZM2.48384 2.9806C1.11152 2.9806 0 4.09212 0 5.46444V13.4127C0 14.785 1.11152 15.8966 2.48384 15.8966H10.4321C11.8044 15.8966 12.916 14.785 12.916 13.4127V10.9289C12.916 10.3793 12.472 9.93535 11.9224 9.93535C11.3729 9.93535 10.9289 10.3793 10.9289 10.9289V13.4127C10.9289 13.6859 10.7053 13.9095 10.4321 13.9095H2.48384C2.21061 13.9095 1.98707 13.6859 1.98707 13.4127V5.46444C1.98707 5.19122 2.21061 4.96767 2.48384 4.96767H4.96767C5.51722 4.96767 5.96121 4.52369 5.96121 3.97414C5.96121 3.42459 5.51722 2.9806 4.96767 2.9806H2.48384Z" fill="#1F1F1F"/>
</svg>
