<svg width="20" height="20" viewBox="0 0 20 20" fill="none" xmlns="http://www.w3.org/2000/svg">
<path d="M2.84654 0.493297C2.19576 -0.157491 1.13888 -0.157491 0.488091 0.493297C-0.162697 1.14408 -0.162697 2.20096 0.488091 2.85175L7.64155 10L0.493297 17.1535C-0.157491 17.8042 -0.157491 18.8611 0.493297 19.5119C1.14408 20.1627 2.20096 20.1627 2.85175 19.5119L10 12.3585L17.1535 19.5067C17.8042 20.1575 18.8611 20.1575 19.5119 19.5067C20.1627 18.8559 20.1627 17.799 19.5119 17.1482L12.3585 10L19.5067 2.84654C20.1575 2.19576 20.1575 1.13888 19.5067 0.488091C18.8559 -0.162697 17.799 -0.162697 17.1482 0.488091L10 7.64155L2.84654 0.493297Z" fill="#F5F5F5"/>
</svg>
