<svg width="150" height="150" viewBox="0 0 150 150" fill="none" xmlns="http://www.w3.org/2000/svg">
<rect width="150" height="150" fill="#1E1E1E"/>
<g id="Home" clip-path="url(#clip0_7_44)">
<rect width="1512" height="4876" transform="translate(-234 -1302)" fill="#434449"/>
<g id="Frame 53">
<g id="Frame 50">
<g id="Frame 49">
<g id="Frame 48">
<g id="Frame 10">
<g id="Frame 8">
<rect x="-116.5" y="-59" width="383" height="424" rx="16" fill="#667BC4"/>
<g id="local_library">
<mask id="mask0_7_44" style="mask-type:alpha" maskUnits="userSpaceOnUse" x="0" y="0" width="150" height="150">
<rect id="Bounding box" width="150" height="150" fill="#D9D9D9"/>
</mask>
<g mask="url(#mask0_7_44)">
<path id="local_library_2" d="M75 140.625C67.0833 133.472 58.2984 127.986 48.6453 124.167C38.9932 120.347 29.0281 118.438 18.75 118.438V50.8328C28.7844 50.8328 38.6281 52.9599 48.2812 57.2141C57.9344 61.4672 66.8406 67.4651 75 75.2078C83.1594 67.4651 92.0656 61.4672 101.719 57.2141C111.372 52.9599 121.216 50.8328 131.25 50.8328V118.438C120.938 118.438 110.964 120.347 101.328 124.167C91.6927 127.986 82.9167 133.472 75 140.625ZM75.3125 55C68.5073 55 62.7432 52.6391 58.0203 47.9172C53.2984 43.1943 50.9375 37.4302 50.9375 30.625C50.9375 23.8198 53.2984 18.0557 58.0203 13.3328C62.7432 8.61094 68.5073 6.25 75.3125 6.25C82.1177 6.25 87.8818 8.61094 92.6047 13.3328C97.3266 18.0557 99.6875 23.8198 99.6875 30.625C99.6875 37.4302 97.3266 43.1943 92.6047 47.9172C87.8818 52.6391 82.1177 55 75.3125 55Z" fill="white"/>
</g>
</g>
</g>
</g>
</g>
</g>
</g>
</g>
</g>
<defs>
<clipPath id="clip0_7_44">
<rect width="1512" height="4876" fill="white" transform="translate(-234 -1302)"/>
</clipPath>
</defs>
</svg>
