<svg width="150" height="150" viewBox="0 0 150 150" fill="none" xmlns="http://www.w3.org/2000/svg">
<g id="diversity_1">
<mask id="mask0_76_163" style="mask-type:alpha" maskUnits="userSpaceOnUse" x="0" y="0" width="150" height="150">
<rect id="Bounding box" width="150" height="150" fill="#D9D9D9"/>
</mask>
<g mask="url(#mask0_76_163)">
<path id="diversity_1_2" d="M7.29219 85.625C4.86094 81.3885 3.03802 77.1177 1.82344 72.8125C0.607812 68.5073 0 64.2365 0 60C0 48.4719 3.99323 38.7151 11.9797 30.7297C19.9651 22.7432 29.7219 18.75 41.25 18.75C47.8125 18.75 54.0453 20.113 59.9484 22.8391C65.8505 25.5641 70.8677 29.3052 75 34.0625C79.1323 29.3052 84.1495 25.5641 90.0516 22.8391C95.9547 20.113 102.188 18.75 108.75 18.75C120.278 18.75 130.035 22.7432 138.02 30.7297C146.007 38.7151 150 48.4719 150 60C150 64.2365 149.392 68.4901 148.177 72.7609C146.962 77.0318 145.139 81.2849 142.708 85.5203C141.632 84.0276 140.399 82.7255 139.011 81.6141C137.621 80.5036 136.093 79.5839 134.427 78.8547C136.129 75.6255 137.414 72.4484 138.281 69.3234C139.149 66.1984 139.583 63.0906 139.583 60C139.583 51.3885 136.597 44.0969 130.625 38.125C124.653 32.1531 117.361 29.1672 108.75 29.1672C102.118 29.1672 96.1891 31.0682 90.9641 34.8703C85.738 38.6724 80.4167 43.8198 75 50.3125C69.5833 43.7844 64.262 38.6281 59.0359 34.8438C53.8109 31.0594 47.8823 29.1672 41.25 29.1672C32.6385 29.1672 25.3469 32.1531 19.375 38.125C13.4031 44.0969 10.4172 51.3885 10.4172 60C10.4172 63.0906 10.851 66.1984 11.7188 69.3234C12.5865 72.4484 13.8714 75.6255 15.5734 78.8547C13.9068 79.5839 12.3786 80.5214 10.9891 81.6672C9.60052 82.813 8.36823 84.1323 7.29219 85.625ZM0 137.5V128.698C0 124.462 2.23073 121.051 6.69219 118.464C11.1547 115.877 16.9099 114.583 23.9578 114.583C25.312 114.583 26.5797 114.609 27.7609 114.661C28.9411 114.713 30.1042 114.843 31.25 115.052C30.2083 116.927 29.4271 118.871 28.9062 120.886C28.3854 122.899 28.125 125.052 28.125 127.344V137.5H0ZM37.5 137.5V127.344C37.5 120.573 40.9635 115.104 47.8906 110.938C54.8177 106.771 63.8542 104.688 75 104.688C86.25 104.688 95.3125 106.771 102.188 110.938C109.062 115.104 112.5 120.573 112.5 127.344V137.5H37.5ZM121.875 137.5V127.344C121.875 125.052 121.641 122.899 121.172 120.886C120.703 118.871 119.965 116.927 118.958 115.052C120.104 114.843 121.258 114.713 122.422 114.661C123.585 114.609 124.792 114.583 126.042 114.583C133.194 114.583 138.976 115.877 143.386 118.464C147.795 121.051 150 124.462 150 128.698V137.5H121.875ZM23.9578 109.375C20.7984 109.375 18.099 108.255 15.8594 106.016C13.6198 103.776 12.5 101.077 12.5 97.9172C12.5 94.7224 13.6198 92.0141 15.8594 89.7922C18.099 87.5693 20.7984 86.4578 23.9578 86.4578C27.1526 86.4578 29.8609 87.5693 32.0828 89.7922C34.3057 92.0141 35.4172 94.7224 35.4172 97.9172C35.4172 101.077 34.3057 103.776 32.0828 106.016C29.8609 108.255 27.1526 109.375 23.9578 109.375ZM126.042 109.375C122.882 109.375 120.182 108.255 117.942 106.016C115.703 103.776 114.583 101.077 114.583 97.9172C114.583 94.7224 115.703 92.0141 117.942 89.7922C120.182 87.5693 122.882 86.4578 126.042 86.4578C129.236 86.4578 131.944 87.5693 134.167 89.7922C136.389 92.0141 137.5 94.7224 137.5 97.9172C137.5 101.077 136.389 103.776 134.167 106.016C131.944 108.255 129.236 109.375 126.042 109.375ZM75 100C69.7917 100 65.3646 98.1771 61.7188 94.5312C58.0729 90.8854 56.25 86.4583 56.25 81.25C56.25 75.9375 58.0729 71.4844 61.7188 67.8906C65.3646 64.2969 69.7917 62.5 75 62.5C80.3125 62.5 84.7656 64.2969 88.3594 67.8906C91.9531 71.4844 93.75 75.9375 93.75 81.25C93.75 86.4583 91.9531 90.8854 88.3594 94.5312C84.7656 98.1771 80.3125 100 75 100Z" fill="white"/>
</g>
</g>
</svg>
