<svg width="26" height="26" viewBox="0 0 26 26" fill="none" xmlns="http://www.w3.org/2000/svg">
<path d="M16.25 0C15.3512 0 14.625 0.726172 14.625 1.625C14.625 2.52383 15.3512 3.25 16.25 3.25H20.4496L10.2223 13.4773C9.5875 14.1121 9.5875 15.143 10.2223 15.7777C10.857 16.4125 11.8879 16.4125 12.5227 15.7777L22.75 5.55039V9.75C22.75 10.6488 23.4762 11.375 24.375 11.375C25.2738 11.375 26 10.6488 26 9.75V1.625C26 0.726172 25.2738 0 24.375 0H16.25ZM4.0625 4.875C1.81797 4.875 0 6.69297 0 8.9375V21.9375C0 24.182 1.81797 26 4.0625 26H17.0625C19.307 26 21.125 24.182 21.125 21.9375V17.875C21.125 16.9762 20.3988 16.25 19.5 16.25C18.6012 16.25 17.875 16.9762 17.875 17.875V21.9375C17.875 22.3844 17.5094 22.75 17.0625 22.75H4.0625C3.61562 22.75 3.25 22.3844 3.25 21.9375V8.9375C3.25 8.49063 3.61562 8.125 4.0625 8.125H8.125C9.02383 8.125 9.75 7.39883 9.75 6.5C9.75 5.60117 9.02383 4.875 8.125 4.875H4.0625Z" fill="#1F1F1F"/>
</svg>
