<svg width="150" height="150" viewBox="0 0 150 150" fill="none" xmlns="http://www.w3.org/2000/svg">
<g id="work">
<mask id="mask0_76_175" style="mask-type:alpha" maskUnits="userSpaceOnUse" x="0" y="0" width="150" height="150">
<rect id="Bounding box" width="150" height="150" fill="#D9D9D9"/>
</mask>
<g mask="url(#mask0_76_175)">
<path id="work_2" d="M22.9163 131.25C20.1038 131.25 17.6642 130.217 15.5975 128.152C13.5319 126.085 12.4991 123.645 12.4991 120.833V47.9172C12.4991 45.1047 13.5319 42.6651 15.5975 40.5984C17.6642 38.5328 20.1038 37.5 22.9163 37.5H49.9991V22.9172C49.9991 20.1047 51.0319 17.6651 53.0975 15.5984C55.1642 13.5328 57.6038 12.5 60.4163 12.5H89.5819C92.3944 12.5 94.834 13.5328 96.9007 15.5984C98.9663 17.6651 99.9991 20.1047 99.9991 22.9172V37.5H127.082C129.894 37.5 132.334 38.5328 134.401 40.5984C136.466 42.6651 137.499 45.1047 137.499 47.9172V120.833C137.499 123.645 136.466 126.085 134.401 128.152C132.334 130.217 129.894 131.25 127.082 131.25H22.9163ZM60.4163 37.5H89.5819V22.9172H60.4163V37.5Z" fill="white"/>
</g>
</g>
</svg>
